# xmcd
#
# Track frame offsets: 
#        182
#        18890
#        40217
#        58282
#        80215
#        98575
#        115625
#        131075
#        153030
#        186652
#        203667
#        226335
#        245172
#        261962
#        285405
#        311627
#        336597
#
# Disc length: 4684 seconds
#
# Revision: 0
# Processed by: cddbd v1.5.2PL0 Copyright (c) Steve Scherf et al.
# Submitted via: ExactAudioCopyFreeDBPlugin 1.0
#
DISCID=f5124a11
DTITLE=Various Artist - The Journey Continues . . . Celebrate Black M
DTITLE=usic
DYEAR=1995
DGENRE=Rhythm and Blues
TTITLE0=Joya - Love You All Over
TTITLE1=J Quest - Up And Down (remix)
TTITLE2=Sounds of Blackness - Black Butterfly
TTITLE3=Brian McKnight - On the Down Low
TTITLE4=Buju Banton - Wanna Be Loved
TTITLE5=Solo - Heaven
TTITLE6=Wayman Tisdale - Circumstances
TTITLE7=Walter Beasley - Private Time
TTITLE8=Jimmy Smith - Papa's Got a Brand New Bag
TTITLE9=LL Cool J - Papa Luv It
TTITLE10=North Carolina Mass Choir - He's All That
TTITLE11=Lucky Dube - Trinity
TTITLE12=Skin Deep - World of Pain
TTITLE13=Dee Dee Bridgewater - Song for My Father
TTITLE14=North Carolina Mass Choir - I Love You
TTITLE15=Bandit - Nine Dogg MC (remix)
TTITLE16=Onyx - Live Niggaz
EXTD=
EXTT0=
EXTT1=
EXTT2=
EXTT3=
EXTT4=
EXTT5=
EXTT6=
EXTT7=
EXTT8=
EXTT9=
EXTT10=
EXTT11=
EXTT12=
EXTT13=
EXTT14=
EXTT15=
EXTT16=
PLAYORDER=
